HIERARCHY
ROOT Hips
{
	OFFSET 62.890800 8.863803 43.568401
	CHANNELS 6 Xposition Yposition Zposition Zrotation Xrotation Yrotation
	JOINT Chest
	{
		OFFSET -0.160400 1.630001 7.806301
		CHANNELS 6 Xposition Yposition Zposition Zrotation Xrotation Yrotation
		JOINT Chest2
		{
			OFFSET 0.000000 0.000000 3.197998
			CHANNELS 6 Xposition Yposition Zposition Zrotation Xrotation Yrotation
			JOINT Neck
			{
				OFFSET 0.000000 0.000001 7.440701
				CHANNELS 6 Xposition Yposition Zposition Zrotation Xrotation Yrotation
				JOINT Head
				{
					OFFSET 0.000000 0.000000 2.173901
					CHANNELS 6 Xposition Yposition Zposition Zrotation Xrotation Yrotation
					End Site
					{
						OFFSET 0.000000 0.000001 10.420303
					}
				}
			}
			JOINT LeftCollar
			{
				OFFSET 2.426399 -1.880099 4.759399
				CHANNELS 6 Xposition Yposition Zposition Zrotation Xrotation Yrotation
				JOINT LeftShoulder
				{
					OFFSET 4.420197 0.000000 0.000000
					CHANNELS 6 Xposition Yposition Zposition Zrotation Xrotation Yrotation
					JOINT LeftElbow
					{
						OFFSET 0.000000 -0.000001 -10.347099
						CHANNELS 6 Xposition Yposition Zposition Zrotation Xrotation Yrotation
						JOINT LeftWrist
						{
							OFFSET 0.000000 -0.000001 -12.496300
							CHANNELS 6 Xposition Yposition Zposition Zrotation Xrotation Yrotation
							End Site
							{
								OFFSET 0.000000 0.000000 -2.173901
							}
						}
					}
				}
			}
			JOINT RightCollar
			{
				OFFSET -2.781502 -1.903799 5.072601
				CHANNELS 6 Xposition Yposition Zposition Zrotation Xrotation Yrotation
				JOINT RightShoulder
				{
					OFFSET -4.012100 0.000000 0.000000
					CHANNELS 6 Xposition Yposition Zposition Zrotation Xrotation Yrotation
					JOINT RightElbow
					{
						OFFSET 0.000000 -0.000001 -10.346600
						CHANNELS 6 Xposition Yposition Zposition Zrotation Xrotation Yrotation
						JOINT RightWrist
						{
							OFFSET 0.000000 -0.000001 -12.562599
							CHANNELS 6 Xposition Yposition Zposition Zrotation Xrotation Yrotation
							End Site
							{
								OFFSET 0.000000 0.000000 -2.173901
							}
						}
					}
				}
			}
		}
	}
	JOINT LeftHip
	{
		OFFSET 2.047997 -0.047200 -2.693199
		CHANNELS 6 Xposition Yposition Zposition Zrotation Xrotation Yrotation
		JOINT LeftKnee
		{
			OFFSET 0.000000 -0.000001 -18.824400
			CHANNELS 6 Xposition Yposition Zposition Zrotation Xrotation Yrotation
			JOINT LeftAnkle
			{
				OFFSET 0.000000 -0.000002 -19.078199
				CHANNELS 6 Xposition Yposition Zposition Zrotation Xrotation Yrotation
				End Site
				{
					OFFSET 0.000000 -9.342100 0.000001
				}
			}
		}
	}
	JOINT RightHip
	{
		OFFSET -2.129898 -0.022300 -2.538300
		CHANNELS 6 Xposition Yposition Zposition Zrotation Xrotation Yrotation
		JOINT RightKnee
		{
			OFFSET 0.000000 -0.000001 -18.644600
			CHANNELS 6 Xposition Yposition Zposition Zrotation Xrotation Yrotation
			JOINT RightAnkle
			{
				OFFSET 0.000000 -0.000002 -18.801399
				CHANNELS 6 Xposition Yposition Zposition Zrotation Xrotation Yrotation
				End Site
				{
					OFFSET 0.000000 -8.914600 0.000001
				}
			}
		}
	}
}
MOTION
Frames: 8
Frame Time: 0.041667
-1.925903 58.635109 40.049145 294.722280 11.496349 1.297875 -0.160400 1.630000 7.806302 -1.723013 11.907489 -6.705262 0.000002 0.000005 3.198008 1.680505 -7.640676 0.212200 -0.000001 0.000002 7.440702 -15.813565 13.083854 7.052102 -0.000009 -0.000002 2.173907 -0.337024 1.367912 -0.775244 2.426401 -1.880098 4.759398 -178.930807 171.975912 -183.852860 4.420190 0.000001 -0.000004 -7.297987 1.740800 -108.660353 -0.000005 0.000001 -10.347109 483.923329 -182.974716 -664.771220 0.000002 0.000000 -12.496302 -45.749334 117.734102 162.511934 -2.781496 -1.903799 5.072606 -184.538133 -185.886139 167.112695 -4.012103 -0.000001 -0.000002 -11.432990 3.945179 463.498877 0.000003 -0.000002 -10.346603 -388.809857 -2.485505 -0.533698 0.000006 -0.000004 -12.562599 1653.186637 542.759289 -862.920526 2.047995 -0.047195 -2.693195 411.062532 -43.542623 38.045281 0.000003 -0.000001 -18.824398 106.372328 126.261716 -143.975743 0.000005 -0.000003 -19.078201 -350.804308 -1.887542 22.114366 -2.129900 -0.022300 -2.538301 -463.080815 -32.134718 -56.915410 -0.000008 0.000003 -18.644604 -48.035662 -234.094407 101.907399 0.000001 0.000001 -18.801401 172.705336 169.026254 161.293182
-3.100609 58.356010 39.976154 295.304649 11.369038 1.288381 -0.160408 1.630001 7.806298 -1.838241 12.105183 -6.740685 0.000009 -0.000001 3.198011 1.746149 -7.609679 0.212364 -0.000007 0.000008 7.440702 -15.677762 13.006508 7.140223 -0.000004 -0.000001 2.173920 -0.324617 1.351947 -0.776436 2.426402 -1.880097 4.759395 -178.154297 172.658672 -184.032822 4.420187 -0.000004 -0.000004 -8.090545 2.226652 -108.315606 -0.000002 0.000001 -10.347106 484.009170 -183.332891 -664.764335 -0.000004 -0.000001 -12.496301 -45.767721 117.682534 162.681159 -2.781501 -1.903798 5.072597 -184.806368 -185.531324 167.627090 -4.012101 0.000002 -0.000001 -11.173215 3.593245 462.996940 0.000005 0.000001 -10.346588 -388.074000 -2.530074 -0.515633 -0.000002 -0.000001 -12.562602 1653.250349 542.807919 -862.830860 2.047991 -0.047192 -2.693194 410.248045 -43.383698 37.417658 0.000000 0.000007 -18.824396 98.099610 126.746236 -137.105338 -0.000001 -0.000003 -19.078196 -346.973801 -4.081268 24.952955 -2.129903 -0.022298 -2.538297 -464.049117 -31.911907 -58.007567 -0.000001 0.000002 -18.644600 -54.524348 -235.676032 109.060028 0.000005 -0.000003 -18.801401 176.011694 167.833157 166.826086
-4.272301 58.103718 39.929855 295.946715 11.261908 1.367154 -0.160397 1.630003 7.806301 -2.014640 12.348266 -6.811475 0.000003 -0.000000 3.198002 1.865468 -7.560849 0.214200 0.000001 0.000002 7.440702 -15.533238 12.903182 7.152624 0.000001 0.000002 2.173919 -0.307099 1.321762 -0.769221 2.426411 -1.880097 4.759392 -177.310345 173.480344 -184.210270 4.420195 -0.000004 0.000004 -8.977076 2.812846 -107.906798 0.000010 -0.000002 -10.347104 484.028186 -183.703429 -664.790945 0.000000 0.000002 -12.496300 -45.804215 117.617333 162.858525 -2.781497 -1.903797 5.072602 -185.065273 -185.120912 168.189338 -4.012096 0.000003 0.000006 -11.009082 3.391240 462.321845 0.000002 0.000000 -10.346591 -387.500619 -2.593382 -0.537086 0.000000 -0.000001 -12.562594 1653.310782 542.814695 -862.725784 2.048005 -0.047198 -2.693195 409.229801 -43.172792 36.499643 0.000001 -0.000008 -18.824398 91.488239 127.502256 -131.446649 -0.000011 -0.000002 -19.078203 -343.614769 -6.101835 27.071784 -2.129889 -0.022301 -2.538300 -464.539580 -31.780102 -58.604833 0.000002 0.000004 -18.644596 -63.464615 -237.504310 118.115308 0.000013 0.000000 -18.801399 179.934176 166.697160 173.184310
-5.446701 57.877716 39.912056 296.647656 11.161487 1.539879 -0.160394 1.630001 7.806303 -2.214797 12.609966 -6.928847 0.000012 -0.000005 3.198005 2.031896 -7.510920 0.217598 -0.000005 -0.000002 7.440696 -15.392024 12.836526 7.118291 -0.000004 -0.000001 2.173913 -0.305905 1.276066 -0.756310 2.426395 -1.880103 4.759388 -176.391479 174.378268 -184.569251 4.420199 -0.000002 0.000007 -10.019897 3.465400 -107.271331 -0.000004 -0.000001 -10.347105 483.950704 -184.048559 -664.779471 0.000000 -0.000008 -12.496304 -45.839896 117.552268 163.024581 -2.781504 -1.903805 5.072604 -186.041007 -186.141219 169.015080 -4.012101 -0.000001 0.000010 -9.952646 2.199129 461.122955 -0.000003 0.000000 -10.346604 -387.169246 -2.669632 -0.597830 0.000003 -0.000001 -12.562593 1653.479296 542.785298 -862.614588 2.048000 -0.047194 -2.693194 408.253903 -42.842300 35.416710 0.000002 -0.000002 -18.824400 86.211631 128.325389 -126.913453 -0.000004 -0.000003 -19.078203 -340.771880 -7.826918 28.713272 -2.129896 -0.022300 -2.538296 -464.380955 -31.919110 -58.583981 -0.000003 0.000005 -18.644598 -75.365557 -239.103230 129.247314 0.000001 -0.000001 -18.801395 184.475596 165.420406 178.970122
-6.626610 57.678806 39.918457 297.419385 11.076689 1.810593 -0.160390 1.629996 7.806301 -2.409714 12.848428 -7.075807 0.000015 0.000001 3.198005 2.213297 -7.460098 0.222215 -0.000006 0.000002 7.440707 -15.285960 12.837955 7.045002 -0.000007 0.000002 2.173900 -0.297153 1.225727 -0.752681 2.426401 -1.880098 4.759399 -175.681440 175.194134 -184.597883 4.420196 -0.000000 0.000006 -10.858189 4.197439 -106.938892 0.000002 -0.000004 -10.347102 483.773010 -184.316288 -664.765810 0.000007 0.000000 -12.496300 -45.806954 117.478325 163.079564 -2.781499 -1.903799 5.072608 -186.401723 -185.911985 169.418867 -4.012100 -0.000003 -0.000005 -9.851964 2.262554 460.372017 0.000004 0.000002 -10.346603 -387.056438 -2.729977 -0.678767 0.000005 -0.000002 -12.562604 1653.730647 542.718417 -862.516398 2.048015 -0.047198 -2.693199 406.606871 -42.676579 33.784243 0.000004 0.000001 -18.824396 82.764407 128.949805 -123.515529 -0.000008 -0.000001 -19.078201 -338.427377 -9.045198 29.717149 -2.129886 -0.022299 -2.538299 -464.693723 -31.359605 -58.546947 -0.000004 0.000001 -18.644598 -87.675286 -239.795265 141.032396 -0.000010 0.000001 -18.801399 189.585820 164.148843 183.915711
-7.811508 57.508511 39.944855 298.278568 11.032990 2.158103 -0.160394 1.630002 7.806310 -2.612643 13.032006 -7.215585 0.000005 0.000003 3.198007 2.386538 -7.419189 0.227259 -0.000002 0.000003 7.440700 -15.178560 12.903296 6.909591 -0.000006 0.000001 2.173907 -0.259665 1.179803 -0.747901 2.426411 -1.880094 4.759396 -175.152606 175.843712 -184.609399 4.420191 0.000002 0.000004 -11.471745 4.893771 -106.656450 0.000001 -0.000001 -10.347100 483.571820 -184.524637 -664.646200 -0.000004 -0.000009 -12.496300 -45.806414 117.487682 163.168151 -2.781499 -1.903796 5.072604 -186.637719 -185.767198 169.628281 -4.012099 0.000001 0.000008 -9.893847 2.475293 459.701401 -0.000001 0.000000 -10.346601 -387.176704 -2.739913 -0.771840 0.000001 0.000001 -12.562613 1653.922986 542.532526 -862.533774 2.047999 -0.047193 -2.693197 405.723209 -42.413876 32.594650 0.000000 0.000002 -18.824394 79.415511 129.414449 -120.357810 -0.000002 -0.000003 -19.078199 -336.368894 -9.719131 30.353258 -2.129897 -0.022296 -2.538295 -464.027370 -31.427626 -57.771311 -0.000001 0.000001 -18.644604 -102.121293 -239.463236 153.710689 -0.000000 -0.000002 -18.801395 195.200618 162.884821 187.703898
-8.999512 57.366718 39.985455 299.248264 11.041003 2.566654 -0.160394 1.630002 7.806303 -2.797181 13.158059 -7.351410 0.000004 0.000001 3.197997 2.534250 -7.393888 0.232045 0.000002 0.000004 7.440695 -15.076318 13.006314 6.713472 0.000000 -0.000004 2.173917 -0.239412 1.128766 -0.734047 2.426400 -1.880098 4.759393 -174.810414 176.316115 -184.589318 4.420201 0.000000 0.000003 -11.870549 5.436175 -106.467192 0.000002 0.000001 -10.347105 483.260910 -184.689244 -664.495499 -0.000001 -0.000003 -12.496298 -45.638129 117.591610 163.055931 -2.781496 -1.903795 5.072597 -186.812244 -185.661603 169.658361 -4.012101 -0.000002 0.000002 -10.063997 2.849111 459.145151 0.000003 -0.000003 -10.346594 -387.501603 -2.716050 -0.886234 -0.000006 -0.000002 -12.562600 1654.323399 542.421167 -862.519130 2.048006 -0.047199 -2.693197 405.053058 -42.286736 31.554753 0.000002 0.000003 -18.824394 76.489465 129.791462 -117.435663 -0.000001 -0.000003 -19.078197 -334.689351 -9.961748 30.850896 -2.129896 -0.022302 -2.538301 -463.264629 -31.386287 -56.782788 -0.000004 0.000003 -18.644600 -114.365295 -237.982341 164.151097 -0.000008 0.000000 -18.801401 200.839049 161.879568 190.123138
-10.188400 57.252308 40.035355 300.315659 11.102271 3.040029 -0.160395 1.630001 7.806300 -2.928009 13.249875 -7.507110 0.000010 -0.000001 3.198011 2.646030 -7.393995 0.236030 -0.000006 0.000000 7.440699 -14.970211 13.101972 6.480541 -0.000004 0.000000 2.173919 -0.226585 1.052479 -0.729221 2.426400 -1.880099 4.759395 -174.639071 176.619266 -184.497056 4.420195 0.000005 0.000006 -12.014320 5.864566 -106.417858 -0.000001 0.000000 -10.347094 482.978030 -184.823225 -664.312122 0.000001 -0.000010 -12.496302 -45.371946 117.736697 162.818787 -2.781504 -1.903800 5.072602 -186.962345 -185.574764 169.523260 -4.012105 -0.000001 0.000011 -10.326065 3.374196 458.733482 -0.000003 0.000003 -10.346602 -380.448504 -2.886991 -0.640220 -0.000001 0.000001 -12.562622 1647.180114 542.172767 -862.602076 2.048003 -0.047202 -2.693202 404.886729 -42.282238 30.862719 0.000003 -0.000000 -18.824394 73.657457 130.138586 -114.594373 0.000005 -0.000004 -19.078197 -333.004370 -9.589498 31.331413 -2.129891 -0.022300 -2.538300 -462.300097 -31.366107 -55.608818 0.000000 0.000002 -18.644598 -122.842605 -235.913969 171.120308 -0.000007 -0.000000 -18.801399 205.386329 161.150349 191.347613
